<svg width="23" height="25" viewBox="0 0 23 25" fill="none" xmlns="http://www.w3.org/2000/svg">
<path d="M7.92594 6.81052L17.0309 12.0787C17.0888 11.6758 17.0262 11.2542 16.8056 10.8749L10.551 0.0203775C10.4212 0.0156751 10.2929 0 10.1615 0H0.559082V16.4691L5.79364 7.3842C6.22542 6.63496 7.17971 6.37948 7.92594 6.81052Z" fill="url(#paint0_linear_242_2096)"/>
<path d="M6.55238 17.3503V6.73242C6.24732 6.85938 5.97198 7.06159 5.79364 7.36881L0.559082 16.4552V24.9994H10.1615C11.8824 24.9994 13.489 24.6561 14.9784 23.9711C16.4677 23.2846 17.7724 22.3661 18.8863 21.2156C19.5402 20.5416 20.1003 19.7955 20.5884 18.9945H8.19346C7.2861 18.9945 6.55238 18.2578 6.55238 17.3503Z" fill="url(#paint1_linear_242_2096)"/>
<path d="M21.4819 7.7259C20.8405 6.21176 19.9629 4.88415 18.849 3.74462C17.732 2.60509 16.432 1.69441 14.9411 1.00787C13.5644 0.374626 12.0954 0.0485906 10.5404 0L16.8028 10.867C17.3206 11.7652 17.014 12.9141 16.1144 13.4361L7.15186 18.6212C7.43502 18.8547 7.7917 18.9989 8.18749 18.9989H20.5777C20.9234 18.4331 21.2363 17.8437 21.4976 17.2152C22.1265 15.6995 22.4409 14.1257 22.4409 12.4878C22.4409 10.8263 22.1218 9.24162 21.4819 7.7259Z" fill="url(#paint2_linear_242_2096)"/>
<defs>
<linearGradient id="paint0_linear_242_2096" x1="17.0566" y1="8.21323" x2="0.555484" y2="8.21323" gradientUnits="userSpaceOnUse">
<stop stop-color="#850505"/>
<stop offset="0.0015" stop-color="#850505"/>
<stop offset="1" stop-color="#E22026"/>
</linearGradient>
<linearGradient id="paint1_linear_242_2096" x1="10.5276" y1="6.72897" x2="10.5276" y2="24.9958" gradientUnits="userSpaceOnUse">
<stop stop-color="#850505"/>
<stop offset="0.0015" stop-color="#850505"/>
<stop offset="1" stop-color="#E22026"/>
</linearGradient>
<linearGradient id="paint2_linear_242_2096" x1="6.81339" y1="18.2866" x2="20.1112" y2="5.01437" gradientUnits="userSpaceOnUse">
<stop stop-color="#850505"/>
<stop offset="0.0015" stop-color="#850505"/>
<stop offset="1" stop-color="#E22026"/>
</linearGradient>
</defs>
</svg>
